<svg>
    <symbol id="icon-logo" width="240" height="32" viewBox="0 0 240 32" fill="none"
        xmlns="http://www.w3.org/2000/svg">
        <path
            d="M11.8076 32C10.6569 32 9.62393 31.9399 8.70861 31.8197C7.81944 31.6995 6.83874 31.4742 5.76651 31.1437C4.56352 30.7831 3.56974 30.3174 2.78518 29.7465C2.00063 29.1455 1.34683 28.3192 0.823787 27.2676C0.274596 26.216 0 24.969 0 23.5268V10.6817C0 4.79249 3.93587 1.84789 11.8076 1.84789C13.8213 1.84789 16.515 2.1784 19.8886 2.83944V8.11268C16.8549 7.27136 14.1874 6.8507 11.8861 6.8507C10.9184 6.8507 10.16 6.88075 9.61085 6.94085C9.08781 7.00094 8.53862 7.15117 7.96327 7.39155C6.73413 7.8723 6.11956 8.93897 6.11956 10.5915V23.031C6.11956 25.6751 8.2248 26.9972 12.4353 26.9972C14.2397 26.9972 16.7765 26.5615 20.0455 25.6901V31.0085C17.2472 31.6695 14.5013 32 11.8076 32Z"
            fill="black" />
        <path
            d="M11.8076 32C10.6569 32 9.62393 31.9399 8.70861 31.8197C7.81944 31.6995 6.83874 31.4742 5.76651 31.1437C4.56352 30.7831 3.56974 30.3174 2.78518 29.7465C2.00063 29.1455 1.34683 28.3192 0.823787 27.2676C0.274596 26.216 0 24.969 0 23.5268V10.6817C0 4.79249 3.93587 1.84789 11.8076 1.84789C13.8213 1.84789 16.515 2.1784 19.8886 2.83944V8.11268C16.8549 7.27136 14.1874 6.8507 11.8861 6.8507C10.9184 6.8507 10.16 6.88075 9.61085 6.94085C9.08781 7.00094 8.53862 7.15117 7.96327 7.39155C6.73413 7.8723 6.11956 8.93897 6.11956 10.5915V23.031C6.11956 25.6751 8.2248 26.9972 12.4353 26.9972C14.2397 26.9972 16.7765 26.5615 20.0455 25.6901V31.0085C17.2472 31.6695 14.5013 32 11.8076 32Z"
            fill="url(#paint0_linear_11709_1240)" />
        <path
            d="M23.8773 1.84789H29.6045V7.1662H23.8773V1.84789ZM23.8773 9.73521H29.6045V31.5493H23.8773V9.73521Z"
            fill="black" />
        <path
            d="M23.8773 1.84789H29.6045V7.1662H23.8773V1.84789ZM23.8773 9.73521H29.6045V31.5493H23.8773V9.73521Z"
            fill="url(#paint1_linear_11709_1240)" />
        <path
            d="M34.7915 9.73521H40.4403V12.3944C40.8849 10.3211 42.9117 9.28451 46.5207 9.28451C48.9528 9.28451 50.6527 9.79531 51.6203 10.8169C52.6141 11.8085 53.111 13.3859 53.111 15.5493V31.5493H47.3837V16.4056C47.3837 15.5643 47.3052 14.9333 47.1483 14.5127C47.0176 14.092 46.7299 13.7915 46.2853 13.6113C45.8669 13.431 45.2131 13.3408 44.3239 13.3408C43.1994 13.3408 42.3756 13.431 41.8526 13.6113C41.3295 13.7615 40.9765 14.0469 40.7934 14.4676C40.6103 14.8883 40.5188 15.5343 40.5188 16.4056V31.5493H34.7915V9.73521Z"
            fill="black" />
        <path
            d="M34.7915 9.73521H40.4403V12.3944C40.8849 10.3211 42.9117 9.28451 46.5207 9.28451C48.9528 9.28451 50.6527 9.79531 51.6203 10.8169C52.6141 11.8085 53.111 13.3859 53.111 15.5493V31.5493H47.3837V16.4056C47.3837 15.5643 47.3052 14.9333 47.1483 14.5127C47.0176 14.092 46.7299 13.7915 46.2853 13.6113C45.8669 13.431 45.2131 13.3408 44.3239 13.3408C43.1994 13.3408 42.3756 13.431 41.8526 13.6113C41.3295 13.7615 40.9765 14.0469 40.7934 14.4676C40.6103 14.8883 40.5188 15.5343 40.5188 16.4056V31.5493H34.7915V9.73521Z"
            fill="url(#paint2_linear_11709_1240)" />
        <path
            d="M67.6538 32C60.9328 32 57.5722 29.6413 57.5722 24.9239V17.0817C57.5722 14.3474 58.3306 12.3643 59.8475 11.1324C61.3904 9.90047 63.7572 9.28451 66.9477 9.28451C69.9552 9.28451 72.152 9.88545 73.538 11.0873C74.9502 12.2592 75.6563 14.2573 75.6563 17.0817V22.4H63.3387V24.3831C63.3387 25.6451 63.731 26.5465 64.5156 27.0873C65.3001 27.6282 66.7123 27.8986 68.7522 27.8986C70.6351 27.8986 72.7535 27.5831 75.1071 26.9521V31.1437C72.7796 31.7146 70.2952 32 67.6538 32ZM70.2036 18.6592V15.5042C70.2036 14.7831 69.9421 14.2423 69.4191 13.8817C68.9222 13.5211 68.0723 13.3408 66.8693 13.3408C65.4832 13.3408 64.5548 13.5211 64.0841 13.8817C63.5872 14.2723 63.3387 14.8131 63.3387 15.5042V18.6592H70.2036Z"
            fill="black" />
        <path
            d="M67.6538 32C60.9328 32 57.5722 29.6413 57.5722 24.9239V17.0817C57.5722 14.3474 58.3306 12.3643 59.8475 11.1324C61.3904 9.90047 63.7572 9.28451 66.9477 9.28451C69.9552 9.28451 72.152 9.88545 73.538 11.0873C74.9502 12.2592 75.6563 14.2573 75.6563 17.0817V22.4H63.3387V24.3831C63.3387 25.6451 63.731 26.5465 64.5156 27.0873C65.3001 27.6282 66.7123 27.8986 68.7522 27.8986C70.6351 27.8986 72.7535 27.5831 75.1071 26.9521V31.1437C72.7796 31.7146 70.2952 32 67.6538 32ZM70.2036 18.6592V15.5042C70.2036 14.7831 69.9421 14.2423 69.4191 13.8817C68.9222 13.5211 68.0723 13.3408 66.8693 13.3408C65.4832 13.3408 64.5548 13.5211 64.0841 13.8817C63.5872 14.2723 63.3387 14.8131 63.3387 15.5042V18.6592H70.2036Z"
            fill="url(#paint3_linear_11709_1240)" />
        <path
            d="M80.0339 9.73521H85.7612V12.3944C86.1273 10.3211 87.9972 9.28451 91.3708 9.28451C93.1491 9.28451 94.496 9.55493 95.4113 10.0958C96.3266 10.6066 96.9412 11.4178 97.255 12.5296C97.5688 11.3878 98.1703 10.5615 99.0595 10.0507C99.9748 9.53991 101.348 9.28451 103.178 9.28451C104.826 9.28451 106.094 9.50986 106.984 9.96056C107.873 10.3812 108.487 11.0423 108.827 11.9437C109.193 12.8451 109.376 14.0469 109.376 15.5493V31.5493H103.649V16.4507C103.649 15.4892 103.597 14.8131 103.492 14.4225C103.388 14.0019 103.152 13.7164 102.786 13.5662C102.446 13.416 101.845 13.3408 100.982 13.3408C99.9094 13.3408 99.1379 13.416 98.6672 13.5662C98.2226 13.7164 97.9219 14.0019 97.765 14.4225C97.6342 14.8131 97.5688 15.4892 97.5688 16.4507V31.5493H91.8415V16.4507C91.8415 15.4892 91.7892 14.8131 91.6846 14.4225C91.58 14.0019 91.3447 13.7164 90.9785 13.5662C90.6385 13.416 90.037 13.3408 89.174 13.3408C88.1018 13.3408 87.3303 13.416 86.8596 13.5662C86.415 13.7164 86.1143 14.0019 85.9573 14.4225C85.8266 14.8131 85.7612 15.4892 85.7612 16.4507V31.5493H80.0339V9.73521Z"
            fill="black" />
        <path
            d="M80.0339 9.73521H85.7612V12.3944C86.1273 10.3211 87.9972 9.28451 91.3708 9.28451C93.1491 9.28451 94.496 9.55493 95.4113 10.0958C96.3266 10.6066 96.9412 11.4178 97.255 12.5296C97.5688 11.3878 98.1703 10.5615 99.0595 10.0507C99.9748 9.53991 101.348 9.28451 103.178 9.28451C104.826 9.28451 106.094 9.50986 106.984 9.96056C107.873 10.3812 108.487 11.0423 108.827 11.9437C109.193 12.8451 109.376 14.0469 109.376 15.5493V31.5493H103.649V16.4507C103.649 15.4892 103.597 14.8131 103.492 14.4225C103.388 14.0019 103.152 13.7164 102.786 13.5662C102.446 13.416 101.845 13.3408 100.982 13.3408C99.9094 13.3408 99.1379 13.416 98.6672 13.5662C98.2226 13.7164 97.9219 14.0019 97.765 14.4225C97.6342 14.8131 97.5688 15.4892 97.5688 16.4507V31.5493H91.8415V16.4507C91.8415 15.4892 91.7892 14.8131 91.6846 14.4225C91.58 14.0019 91.3447 13.7164 90.9785 13.5662C90.6385 13.416 90.037 13.3408 89.174 13.3408C88.1018 13.3408 87.3303 13.416 86.8596 13.5662C86.415 13.7164 86.1143 14.0019 85.9573 14.4225C85.8266 14.8131 85.7612 15.4892 85.7612 16.4507V31.5493H80.0339V9.73521Z"
            fill="url(#paint4_linear_11709_1240)" />
        <path
            d="M119.771 32C117.993 32 116.659 31.8197 115.77 31.4592C114.907 31.0685 114.292 30.3925 113.926 29.431C113.586 28.4394 113.416 26.9671 113.416 25.0141C113.416 23.2714 113.599 21.9042 113.965 20.9127C114.357 19.9211 114.972 19.215 115.809 18.7944C116.672 18.3437 117.849 18.1183 119.339 18.1183H125.773V16.631C125.773 15.6995 125.655 15.0085 125.42 14.5577C125.211 14.107 124.805 13.7915 124.204 13.6113C123.628 13.431 122.752 13.3408 121.575 13.3408C119.954 13.3408 117.731 13.5211 114.907 13.8817V9.73521C116.973 9.43474 119.392 9.28451 122.164 9.28451C124.596 9.28451 126.466 9.49484 127.773 9.91549C129.107 10.3362 130.062 11.0573 130.637 12.0789C131.212 13.1005 131.5 14.5878 131.5 16.5408V31.5493H125.89V29.5662C125.446 30.4376 124.844 31.0535 124.086 31.4141C123.328 31.8047 121.889 32 119.771 32ZM122.007 27.8986C123.158 27.8986 123.981 27.8535 124.478 27.7634C124.844 27.7033 125.093 27.6131 125.224 27.493C125.381 27.3728 125.511 27.1775 125.616 26.907C125.72 26.6967 125.773 26.3812 125.773 25.9606V21.7239H121.85C120.961 21.7239 120.333 21.7991 119.967 21.9493C119.601 22.0695 119.352 22.3399 119.222 22.7606C119.091 23.1512 119.026 23.8573 119.026 24.8789C119.026 25.8704 119.091 26.5615 119.222 26.9521C119.352 27.3427 119.601 27.5981 119.967 27.7183C120.359 27.8385 121.039 27.8986 122.007 27.8986Z"
            fill="black" />
        <path
            d="M119.771 32C117.993 32 116.659 31.8197 115.77 31.4592C114.907 31.0685 114.292 30.3925 113.926 29.431C113.586 28.4394 113.416 26.9671 113.416 25.0141C113.416 23.2714 113.599 21.9042 113.965 20.9127C114.357 19.9211 114.972 19.215 115.809 18.7944C116.672 18.3437 117.849 18.1183 119.339 18.1183H125.773V16.631C125.773 15.6995 125.655 15.0085 125.42 14.5577C125.211 14.107 124.805 13.7915 124.204 13.6113C123.628 13.431 122.752 13.3408 121.575 13.3408C119.954 13.3408 117.731 13.5211 114.907 13.8817V9.73521C116.973 9.43474 119.392 9.28451 122.164 9.28451C124.596 9.28451 126.466 9.49484 127.773 9.91549C129.107 10.3362 130.062 11.0573 130.637 12.0789C131.212 13.1005 131.5 14.5878 131.5 16.5408V31.5493H125.89V29.5662C125.446 30.4376 124.844 31.0535 124.086 31.4141C123.328 31.8047 121.889 32 119.771 32ZM122.007 27.8986C123.158 27.8986 123.981 27.8535 124.478 27.7634C124.844 27.7033 125.093 27.6131 125.224 27.493C125.381 27.3728 125.511 27.1775 125.616 26.907C125.72 26.6967 125.773 26.3812 125.773 25.9606V21.7239H121.85C120.961 21.7239 120.333 21.7991 119.967 21.9493C119.601 22.0695 119.352 22.3399 119.222 22.7606C119.091 23.1512 119.026 23.8573 119.026 24.8789C119.026 25.8704 119.091 26.5615 119.222 26.9521C119.352 27.3427 119.601 27.5981 119.967 27.7183C120.359 27.8385 121.039 27.8986 122.007 27.8986Z"
            fill="url(#paint5_linear_11709_1240)" />
        <path
            d="M148.896 32C147.431 32 146.137 31.9249 145.012 31.7746C143.888 31.6244 142.776 31.369 141.678 31.0085C140.501 30.6479 139.533 30.1671 138.775 29.5662C138.017 28.9352 137.402 28.1239 136.931 27.1324C136.461 26.0808 136.225 24.8789 136.225 23.5268V11.3577C136.225 9.88545 136.487 8.56338 137.01 7.39155C137.533 6.18967 138.239 5.24319 139.128 4.55211C139.965 3.92113 140.959 3.38028 142.109 2.92958C143.286 2.47887 144.437 2.1784 145.561 2.02817C146.503 1.90798 147.641 1.84789 148.974 1.84789C152.583 1.84789 156.035 2.16338 159.33 2.79437V8.11268C156.297 7.27136 152.845 6.8507 148.974 6.8507C144.555 6.8507 142.345 8.323 142.345 11.2676V23.031C142.345 24.4732 142.933 25.4948 144.11 26.0958C145.313 26.6967 147.117 26.9972 149.523 26.9972C150.805 26.9972 152.178 26.7718 153.642 26.3211V19.5155H149.484V14.9183H159.487V30.107C158.18 30.6479 156.506 31.0986 154.466 31.4592C152.453 31.8197 150.596 32 148.896 32Z"
            fill="black" />
        <path
            d="M148.896 32C147.431 32 146.137 31.9249 145.012 31.7746C143.888 31.6244 142.776 31.369 141.678 31.0085C140.501 30.6479 139.533 30.1671 138.775 29.5662C138.017 28.9352 137.402 28.1239 136.931 27.1324C136.461 26.0808 136.225 24.8789 136.225 23.5268V11.3577C136.225 9.88545 136.487 8.56338 137.01 7.39155C137.533 6.18967 138.239 5.24319 139.128 4.55211C139.965 3.92113 140.959 3.38028 142.109 2.92958C143.286 2.47887 144.437 2.1784 145.561 2.02817C146.503 1.90798 147.641 1.84789 148.974 1.84789C152.583 1.84789 156.035 2.16338 159.33 2.79437V8.11268C156.297 7.27136 152.845 6.8507 148.974 6.8507C144.555 6.8507 142.345 8.323 142.345 11.2676V23.031C142.345 24.4732 142.933 25.4948 144.11 26.0958C145.313 26.6967 147.117 26.9972 149.523 26.9972C150.805 26.9972 152.178 26.7718 153.642 26.3211V19.5155H149.484V14.9183H159.487V30.107C158.18 30.6479 156.506 31.0986 154.466 31.4592C152.453 31.8197 150.596 32 148.896 32Z"
            fill="url(#paint6_linear_11709_1240)" />
        <path
            d="M170.788 32C168.356 32 166.643 31.5042 165.649 30.5127C164.682 29.4911 164.198 27.8986 164.198 25.7352V9.73521H169.925V24.8338C169.925 25.6751 169.99 26.3061 170.121 26.7268C170.278 27.1474 170.566 27.4479 170.984 27.6282C171.429 27.8085 172.096 27.8986 172.985 27.8986C174.109 27.8986 174.933 27.8235 175.456 27.6732C175.979 27.493 176.332 27.1925 176.515 26.7718C176.698 26.3512 176.79 25.7052 176.79 24.8338V9.73521H182.517V31.5493H176.868V28.8901C176.45 30.9634 174.423 32 170.788 32Z"
            fill="black" />
        <path
            d="M170.788 32C168.356 32 166.643 31.5042 165.649 30.5127C164.682 29.4911 164.198 27.8986 164.198 25.7352V9.73521H169.925V24.8338C169.925 25.6751 169.99 26.3061 170.121 26.7268C170.278 27.1474 170.566 27.4479 170.984 27.6282C171.429 27.8085 172.096 27.8986 172.985 27.8986C174.109 27.8986 174.933 27.8235 175.456 27.6732C175.979 27.493 176.332 27.1925 176.515 26.7718C176.698 26.3512 176.79 25.7052 176.79 24.8338V9.73521H182.517V31.5493H176.868V28.8901C176.45 30.9634 174.423 32 170.788 32Z"
            fill="url(#paint7_linear_11709_1240)" />
        <path
            d="M187.685 1.84789H193.412V7.1662H187.685V1.84789ZM187.685 9.73521H193.412V31.5493H187.685V9.73521Z"
            fill="black" />
        <path
            d="M187.685 1.84789H193.412V7.1662H187.685V1.84789ZM187.685 9.73521H193.412V31.5493H187.685V9.73521Z"
            fill="url(#paint8_linear_11709_1240)" />
        <path
            d="M205.895 32C203.646 32 201.986 31.8197 200.913 31.4592C199.841 31.0685 199.096 30.3474 198.677 29.2958C198.259 28.2441 198.05 26.6066 198.05 24.3831V15.8648C198.05 13.461 198.638 11.7634 199.815 10.7718C201.018 9.78028 202.953 9.28451 205.621 9.28451C206.876 9.28451 207.857 9.37465 208.563 9.55493C209.295 9.70516 209.883 9.99061 210.328 10.4113C210.773 10.8019 211.23 11.3878 211.701 12.169V0H217.428V31.5493H211.897V29.0704C211.426 29.9418 210.995 30.5577 210.603 30.9183C210.236 31.2488 209.713 31.5042 209.034 31.6845C208.327 31.8948 207.281 32 205.895 32ZM207.347 27.8986C208.628 27.8986 209.57 27.8235 210.171 27.6732C210.773 27.523 211.178 27.2526 211.387 26.862C211.596 26.4413 211.701 25.8254 211.701 25.0141V16.2254C211.701 15.4742 211.583 14.9033 211.348 14.5127C211.139 14.092 210.746 13.7915 210.171 13.6113C209.622 13.431 208.785 13.3408 207.661 13.3408C206.458 13.3408 205.595 13.431 205.071 13.6113C204.548 13.7615 204.195 14.0469 204.012 14.4676C203.855 14.8582 203.777 15.5192 203.777 16.4507V24.7887C203.777 25.63 203.855 26.2761 204.012 26.7268C204.195 27.1474 204.535 27.4479 205.032 27.6282C205.529 27.8085 206.301 27.8986 207.347 27.8986Z"
            fill="black" />
        <path
            d="M205.895 32C203.646 32 201.986 31.8197 200.913 31.4592C199.841 31.0685 199.096 30.3474 198.677 29.2958C198.259 28.2441 198.05 26.6066 198.05 24.3831V15.8648C198.05 13.461 198.638 11.7634 199.815 10.7718C201.018 9.78028 202.953 9.28451 205.621 9.28451C206.876 9.28451 207.857 9.37465 208.563 9.55493C209.295 9.70516 209.883 9.99061 210.328 10.4113C210.773 10.8019 211.23 11.3878 211.701 12.169V0H217.428V31.5493H211.897V29.0704C211.426 29.9418 210.995 30.5577 210.603 30.9183C210.236 31.2488 209.713 31.5042 209.034 31.6845C208.327 31.8948 207.281 32 205.895 32ZM207.347 27.8986C208.628 27.8986 209.57 27.8235 210.171 27.6732C210.773 27.523 211.178 27.2526 211.387 26.862C211.596 26.4413 211.701 25.8254 211.701 25.0141V16.2254C211.701 15.4742 211.583 14.9033 211.348 14.5127C211.139 14.092 210.746 13.7915 210.171 13.6113C209.622 13.431 208.785 13.3408 207.661 13.3408C206.458 13.3408 205.595 13.431 205.071 13.6113C204.548 13.7615 204.195 14.0469 204.012 14.4676C203.855 14.8582 203.777 15.5192 203.777 16.4507V24.7887C203.777 25.63 203.855 26.2761 204.012 26.7268C204.195 27.1474 204.535 27.4479 205.032 27.6282C205.529 27.8085 206.301 27.8986 207.347 27.8986Z"
            fill="url(#paint9_linear_11709_1240)" />
        <path
            d="M231.997 32C225.276 32 221.916 29.6413 221.916 24.9239V17.0817C221.916 14.3474 222.674 12.3643 224.191 11.1324C225.734 9.90047 228.101 9.28451 231.291 9.28451C234.299 9.28451 236.496 9.88545 237.882 11.0873C239.294 12.2592 240 14.2573 240 17.0817V22.4H227.682V24.3831C227.682 25.6451 228.075 26.5465 228.859 27.0873C229.644 27.6282 231.056 27.8986 233.096 27.8986C234.979 27.8986 237.097 27.5831 239.451 26.9521V31.1437C237.123 31.7146 234.639 32 231.997 32ZM234.547 18.6592V15.5042C234.547 14.7831 234.286 14.2423 233.763 13.8817C233.266 13.5211 232.416 13.3408 231.213 13.3408C229.827 13.3408 228.898 13.5211 228.428 13.8817C227.931 14.2723 227.682 14.8131 227.682 15.5042V18.6592H234.547Z"
            fill="black" />
        <path
            d="M231.997 32C225.276 32 221.916 29.6413 221.916 24.9239V17.0817C221.916 14.3474 222.674 12.3643 224.191 11.1324C225.734 9.90047 228.101 9.28451 231.291 9.28451C234.299 9.28451 236.496 9.88545 237.882 11.0873C239.294 12.2592 240 14.2573 240 17.0817V22.4H227.682V24.3831C227.682 25.6451 228.075 26.5465 228.859 27.0873C229.644 27.6282 231.056 27.8986 233.096 27.8986C234.979 27.8986 237.097 27.5831 239.451 26.9521V31.1437C237.123 31.7146 234.639 32 231.997 32ZM234.547 18.6592V15.5042C234.547 14.7831 234.286 14.2423 233.763 13.8817C233.266 13.5211 232.416 13.3408 231.213 13.3408C229.827 13.3408 228.898 13.5211 228.428 13.8817C227.931 14.2723 227.682 14.8131 227.682 15.5042V18.6592H234.547Z"
            fill="url(#paint10_linear_11709_1240)" />
        <defs>
            <linearGradient id="paint0_linear_11709_1240" x1="-2.197" y1="-6.76056" x2="218.726"
                y2="91.6682" gradientUnits="userSpaceOnUse">
                <stop offset="0.2" stopColor="#6A5DC2" />
                <stop offset="0.8" stopColor="#DC5DFC" />
            </linearGradient>
            <linearGradient id="paint1_linear_11709_1240" x1="-2.197" y1="-6.76056" x2="218.726"
                y2="91.6682" gradientUnits="userSpaceOnUse">
                <stop offset="0.2" stopColor="#6A5DC2" />
                <stop offset="0.8" stopColor="#DC5DFC" />
            </linearGradient>
            <linearGradient id="paint2_linear_11709_1240" x1="-2.197" y1="-6.76056" x2="218.726"
                y2="91.6682" gradientUnits="userSpaceOnUse">
                <stop offset="0.2" stopColor="#6A5DC2" />
                <stop offset="0.8" stopColor="#DC5DFC" />
            </linearGradient>
            <linearGradient id="paint3_linear_11709_1240" x1="-2.197" y1="-6.76056" x2="218.726"
                y2="91.6682" gradientUnits="userSpaceOnUse">
                <stop offset="0.2" stopColor="#6A5DC2" />
                <stop offset="0.8" stopColor="#DC5DFC" />
            </linearGradient>
            <linearGradient id="paint4_linear_11709_1240" x1="-2.197" y1="-6.76056" x2="218.726"
                y2="91.6682" gradientUnits="userSpaceOnUse">
                <stop offset="0.2" stopColor="#6A5DC2" />
                <stop offset="0.8" stopColor="#DC5DFC" />
            </linearGradient>
            <linearGradient id="paint5_linear_11709_1240" x1="-2.197" y1="-6.76056" x2="218.726"
                y2="91.6682" gradientUnits="userSpaceOnUse">
                <stop offset="0.2" stopColor="#6A5DC2" />
                <stop offset="0.8" stopColor="#DC5DFC" />
            </linearGradient>
            <linearGradient id="paint6_linear_11709_1240" x1="-2.197" y1="-6.76056" x2="218.726"
                y2="91.6682" gradientUnits="userSpaceOnUse">
                <stop offset="0.2" stopColor="#6A5DC2" />
                <stop offset="0.8" stopColor="#DC5DFC" />
            </linearGradient>
            <linearGradient id="paint7_linear_11709_1240" x1="-2.197" y1="-6.76056" x2="218.726"
                y2="91.6682" gradientUnits="userSpaceOnUse">
                <stop offset="0.2" stopColor="#6A5DC2" />
                <stop offset="0.8" stopColor="#DC5DFC" />
            </linearGradient>
            <linearGradient id="paint8_linear_11709_1240" x1="-2.197" y1="-6.76056" x2="218.726"
                y2="91.6682" gradientUnits="userSpaceOnUse">
                <stop offset="0.2" stopColor="#6A5DC2" />
                <stop offset="0.8" stopColor="#DC5DFC" />
            </linearGradient>
            <linearGradient id="paint9_linear_11709_1240" x1="-2.197" y1="-6.76056" x2="218.726"
                y2="91.6682" gradientUnits="userSpaceOnUse">
                <stop offset="0.2" stopColor="#6A5DC2" />
                <stop offset="0.8" stopColor="#DC5DFC" />
            </linearGradient>
            <linearGradient id="paint10_linear_11709_1240" x1="-2.197" y1="-6.76056" x2="218.726"
                y2="91.6682" gradientUnits="userSpaceOnUse">
                <stop offset="0.2" stopColor="#6A5DC2" />
                <stop offset="0.8" stopColor="#DC5DFC" />
            </linearGradient>
        </defs>
    </symbol>

    <symbol id="icon-like" width="24" height="24" viewBox="0 0 24 24" fill="currentColor"
        xmlns="http://www.w3.org/2000/svg">
        <path
            d="M16.5 3C19.5376 3 22 5.5 22 9C22 16 14.5 20 12 21.5C9.5 20 2 16 2 9C2 5.5 4.5 3 7.5 3C9.35997 3 11 4 12 5C13 4 14.64 3 16.5 3ZM12.9339 18.6038C13.8155 18.0485 14.61 17.4955 15.3549 16.9029C18.3337 14.533 20 11.9435 20 9C20 6.64076 18.463 5 16.5 5C15.4241 5 14.2593 5.56911 13.4142 6.41421L12 7.82843L10.5858 6.41421C9.74068 5.56911 8.5759 5 7.5 5C5.55906 5 4 6.6565 4 9C4 11.9435 5.66627 14.533 8.64514 16.9029C9.39 17.4955 10.1845 18.0485 11.0661 18.6038C11.3646 18.7919 11.6611 18.9729 12 19.1752C12.3389 18.9729 12.6354 18.7919 12.9339 18.6038Z"
            fill="currentColor" />
    </symbol>

    <symbol id="icon-refresh" width="24" height="24" viewBox="0 0 24 24" fill="none" xmlns="http://www.w3.org/2000/svg">
        <path d="M12 4C14.7486 4 17.1749 5.38626 18.6156 7.5H16V9.5H22V3.5H20V5.99936C18.1762 3.57166 15.2724 2 12 2C6.47715 2 2 6.47715 2 12H4C4 7.58172 7.58172 4 12 4ZM20 12C20 16.4183 16.4183 20 12 20C9.25144 20 6.82508 18.6137 5.38443 16.5H8V14.5H2V20.5H4V18.0006C5.82381 20.4283 8.72764 22 12 22C17.5228 22 22 17.5228 22 12H20Z" fill="currentColor"/>
    </symbol>

    <symbol id="icon-rating" width="10" height="10" viewBox="0 0 10 10" fill="none" xmlns="http://www.w3.org/2000/svg">
        <g clip-path="url(#clip0_11879_321)">
        <path d="M5.00041 7.60831L2.06148 9.2534L2.71786 5.94994L0.245117 3.66323L3.58972 3.26667L5.00041 0.208313L6.41108 3.26667L9.75566 3.66323L7.28295 5.94994L7.93933 9.2534L5.00041 7.60831Z" fill="white"/>
        </g>
        <defs>
        <clipPath id="clip0_11879_321">
        <rect width="10" height="10" fill="white"/>
        </clipPath>
        </defs>
    </symbol>
        
    <symbol id="icon-close" width="24" height="24" viewBox="0 0 24 24" fill="none" xmlns="http://www.w3.org/2000/svg">
        <path d="M10.5859 12L2.79297 4.20706L4.20718 2.79285L12.0001 10.5857L19.793 2.79285L21.2072 4.20706L13.4143 12L21.2072 19.7928L19.793 21.2071L12.0001 13.4142L4.20718 21.2071L2.79297 19.7928L10.5859 12Z" fill="black"/>
    </symbol>

    <symbol id="icon-copyright" width="24" height="24" viewBox="0 0 24 24" fill="none" xmlns="http://www.w3.org/2000/svg">
        <path d="M16.2877 9.42773C15.413 7.97351 13.8195 7 12 7C9.23999 7 7 9.23999 7 12C7 14.76 9.23999 17 12 17C13.8195 17 15.413 16.0265 16.2877 14.5723L14.5729 13.5442C14.0483 14.4166 13.0927 15 12 15C10.3425 15 9 13.6575 9 12C9 10.3425 10.3425 9 12 9C13.093 9 14.0491 9.58386 14.5735 10.4568L16.2877 9.42773ZM22 12C22 6.47998 17.52 2 12 2C6.47998 2 2 6.47998 2 12C2 17.52 6.47998 22 12 22C17.52 22 22 17.52 22 12ZM4 12C4 7.57996 7.57996 4 12 4C16.42 4 20 7.57996 20 12C20 16.42 16.42 20 12 20C7.57996 20 4 16.42 4 12Z" fill="white" fill-opacity="0.7"/>
    </symbol>
        
    <symbol id="icon-youtube" width="36" height="36" viewBox="0 0 36 36" fill="none" xmlns="http://www.w3.org/2000/svg">
        <rect x="0.5" y="0.5" width="35" height="35" rx="7.5" stroke="white" stroke-opacity="0.8"/>
        <path fill-rule="evenodd" clip-rule="evenodd" d="M24.0008 13.0496C24.6617 13.2309 25.1822 13.7653 25.3588 14.4439C25.6798 15.6738 25.6798 18.24 25.6798 18.24C25.6798 18.24 25.6798 20.8061 25.3588 22.036C25.1822 22.7146 24.6617 23.249 24.0008 23.4305C22.8031 23.76 17.9998 23.76 17.9998 23.76C17.9998 23.76 13.1966 23.76 11.9988 23.4305C11.3379 23.249 10.8174 22.7146 10.6407 22.036C10.3198 20.8061 10.3198 18.24 10.3198 18.24C10.3198 18.24 10.3198 15.6738 10.6407 14.4439C10.8174 13.7653 11.3379 13.2309 11.9988 13.0496C13.1966 12.72 17.9998 12.72 17.9998 12.72C17.9998 12.72 22.8031 12.72 24.0008 13.0496ZM16.5598 16.0802V20.8802L20.3998 18.4803L16.5598 16.0802Z" fill="white" fill-opacity="0.8"/>
    </symbol>

    <symbol id="icon-vk" width="36" height="36" viewBox="0 0 36 36" fill="none" xmlns="http://www.w3.org/2000/svg">
        <rect x="0.5" y="0.5" width="35" height="35" rx="7.5" stroke="white" stroke-opacity="0.8"/>
        <path fill-rule="evenodd" clip-rule="evenodd" d="M26.4875 14.3797C26.6262 13.9851 26.4875 13.6981 25.8729 13.6981H23.8308C23.3153 13.6981 23.0774 13.9492 22.9387 14.2183C22.9387 14.2183 21.8879 16.5141 20.4207 18.0027C19.9449 18.4332 19.7268 18.5767 19.4691 18.5767C19.3303 18.5767 19.1519 18.4332 19.1519 18.0386V14.3617C19.1519 13.8954 18.9933 13.6802 18.5571 13.6802H15.3453C15.0281 13.6802 14.8299 13.8954 14.8299 14.1106C14.8299 14.5591 15.5634 14.6667 15.6427 15.9222V18.6484C15.6427 19.2403 15.5238 19.3479 15.266 19.3479C14.5721 19.3479 12.8869 17.0342 11.8758 14.3976C11.6775 13.8775 11.4793 13.6802 10.9638 13.6802H8.90191C8.30714 13.6802 8.20801 13.9313 8.20801 14.2003C8.20801 14.6846 8.90191 17.1239 11.4396 20.3524C13.1249 22.5585 15.5238 23.7422 17.6848 23.7422C18.9933 23.7422 19.1519 23.4732 19.1519 23.0248V21.3568C19.1519 20.8187 19.2708 20.729 19.6872 20.729C19.9846 20.729 20.5199 20.8725 21.7292 21.9307C23.117 23.1862 23.355 23.7602 24.1282 23.7602H26.1703C26.765 23.7602 27.0426 23.4911 26.884 22.971C26.7056 22.4509 26.0315 21.6976 25.1591 20.8007C24.6833 20.2986 23.9696 19.7426 23.7515 19.4735C23.4541 19.1148 23.5334 18.9713 23.7515 18.6484C23.7317 18.6484 26.2297 15.4559 26.4875 14.3797Z" fill="white" fill-opacity="0.8"/>
    </symbol>

    <symbol id="icon-tg"  width="36" height="36" viewBox="0 0 36 36" fill="none" xmlns="http://www.w3.org/2000/svg">
        <rect x="0.5" y="0.5" width="35" height="35" rx="7.5" stroke="white" stroke-opacity="0.8"/>
        <path d="M8.60057 17.8588C10.2839 16.9315 12.163 16.1576 13.9187 15.3798C16.9392 14.1058 19.9718 12.8538 23.0349 11.6882C23.6309 11.4896 24.7017 11.2954 24.8067 12.1786C24.7492 13.4288 24.5127 14.6716 24.3504 15.9145C23.9387 18.6476 23.4627 21.3713 22.9986 24.0955C22.8387 25.0028 21.702 25.4726 20.9747 24.8919C19.2268 23.7112 17.4654 22.5421 15.7398 21.334C15.1746 20.7596 15.6987 19.9348 16.2036 19.5247C17.6432 18.1059 19.17 16.9005 20.5344 15.4084C20.9024 14.5196 19.815 15.2687 19.4563 15.4982C17.4854 16.8563 15.5628 18.2974 13.4849 19.4911C12.4235 20.0753 11.1864 19.576 10.1255 19.25C9.17421 18.8561 7.78028 18.4594 8.60048 17.8588L8.60057 17.8588Z" fill="white" fill-opacity="0.8"/>
    </symbol>

    <symbol id="icon-ok" width="36" height="36" viewBox="0 0 36 36" fill="none" xmlns="http://www.w3.org/2000/svg">
        <rect x="0.5" y="0.5" width="35" height="35" rx="7.5" stroke="white" stroke-opacity="0.8"/>
        <path d="M19.919 22.2622L22.5725 24.8238C23.116 25.3474 23.116 26.1978 22.5725 26.722C22.0294 27.2462 21.1493 27.2462 20.6069 26.722L17.998 24.2048L15.3914 26.722C15.1196 26.9838 14.7635 27.1149 14.4074 27.1149C14.0518 27.1149 13.6962 26.9838 13.4244 26.722C12.8814 26.1978 12.8814 25.348 13.4238 24.8238L16.0776 22.2622C15.1114 22.0497 14.1796 21.6802 13.3213 21.1604C12.6718 20.7651 12.4767 19.9369 12.8859 19.3094C13.2941 18.681 14.1523 18.4919 14.803 18.8872C16.7461 20.0671 19.2493 20.0674 21.1936 18.8872C21.8443 18.4919 22.7023 18.681 23.1112 19.3094C23.5205 19.9364 23.3248 20.7651 22.6753 21.1604C21.817 21.6807 20.8852 22.0497 19.919 22.2622Z" fill="white" fill-opacity="0.8"/>
        <path fill-rule="evenodd" clip-rule="evenodd" d="M13.2402 13.9419C13.2402 16.4679 15.3691 18.5226 17.9868 18.5226C20.605 18.5226 22.7333 16.4679 22.7333 13.9419C22.7333 11.4151 20.605 9.35986 17.9868 9.35986C15.3691 9.35986 13.2402 11.4151 13.2402 13.9419ZM19.952 13.9414C19.952 12.8953 19.0705 12.0446 17.9867 12.0446C16.9038 12.0446 16.0214 12.8953 16.0214 13.9414C16.0214 14.9868 16.9038 15.838 17.9867 15.838C19.0705 15.838 19.952 14.9868 19.952 13.9414Z" fill="white" fill-opacity="0.8"/>
    </symbol>
             
    <symbol id="icon-search" width="24" height="24" viewBox="0 0 24 24" fill="none" xmlns="http://www.w3.org/2000/svg">
        <path d="M18.031 16.6168L22.3137 20.8995L20.8995 22.3137L16.6168 18.031C15.0769 19.263 13.124 20 11 20C6.032 20 2 15.968 2 11C2 6.032 6.032 2 11 2C15.968 2 20 6.032 20 11C20 13.124 19.263 15.0769 18.031 16.6168ZM16.0247 15.8748C17.2475 14.6146 18 12.8956 18 11C18 7.1325 14.8675 4 11 4C7.1325 4 4 7.1325 4 11C4 14.8675 7.1325 18 11 18C12.8956 18 14.6146 17.2475 15.8748 16.0247L16.0247 15.8748Z" fill="currentColor"/>
    </symbol>

    <symbol id="icon-back-arrow" width="40" height="40" viewBox="0 0 40 40" fill="none" xmlns="http://www.w3.org/2000/svg">
        <path d="M18.047 20.0012L26.2967 28.2507L23.9397 30.6077L13.333 20.0012L23.9397 9.39453L26.2967 11.7515L18.047 20.0012Z" fill="currentColor"/>
    </symbol>
               
    <symbol id="icon-exit" width="24" height="24" viewBox="0 0 24 24" fill="none" xmlns="http://www.w3.org/2000/svg">
        <path d="M11.9997 10.5865L16.9495 5.63672L18.3637 7.05093L13.4139 12.0007L18.3637 16.9504L16.9495 18.3646L11.9997 13.4149L7.04996 18.3646L5.63574 16.9504L10.5855 12.0007L5.63574 7.05093L7.04996 5.63672L11.9997 10.5865Z" fill="currentColor" fill-opacity="0.5"/>
    </symbol>

    <symbol id="icon-input-text" width="24" height="24" viewBox="0 0 24 24" fill="none" xmlns="http://www.w3.org/2000/svg">
        <path d="M4 22C4 17.5817 7.58172 14 12 14C16.4183 14 20 17.5817 20 22H18C18 18.6863 15.3137 16 12 16C8.68629 16 6 18.6863 6 22H4ZM12 13C8.685 13 6 10.315 6 7C6 3.685 8.685 1 12 1C15.315 1 18 3.685 18 7C18 10.315 15.315 13 12 13ZM12 11C14.21 11 16 9.21 16 7C16 4.79 14.21 3 12 3C9.79 3 8 4.79 8 7C8 9.21 9.79 11 12 11Z" fill="currentColor" fill-opacity="0.4"/>
    </symbol>
        
    <symbol id="icon-input-email" width="24" height="24" viewBox="0 0 24 24" fill="none" xmlns="http://www.w3.org/2000/svg">
        <path d="M21 3C21.5523 3 22 3.44772 22 4V20.0066C22 20.5552 21.5447 21 21.0082 21H2.9918C2.44405 21 2 20.5551 2 20.0066V19H20V7.3L12 14.5L2 5.5V4C2 3.44772 2.44772 3 3 3H21ZM8 15V17H0V15H8ZM5 10V12H0V10H5ZM19.5659 5H4.43414L12 11.8093L19.5659 5Z" fill="currentColor" fill-opacity="0.4"/>
    </symbol>

    <symbol id="icon-input-password" width="24" height="24" viewBox="0 0 24 24" fill="none" xmlns="http://www.w3.org/2000/svg">
        <path d="M12.917 13C12.441 15.8377 9.973 18 7 18C3.68629 18 1 15.3137 1 12C1 8.68629 3.68629 6 7 6C9.973 6 12.441 8.16229 12.917 11H23V13H21V17H19V13H17V17H15V13H12.917ZM7 16C9.20914 16 11 14.2091 11 12C11 9.79086 9.20914 8 7 8C4.79086 8 3 9.79086 3 12C3 14.2091 4.79086 16 7 16Z" fill="currentColor" fill-opacity="0.4"/>
    </symbol>
    
    <symbol id="icon-user" width="24" height="24" viewBox="0 0 24 24" fill="none" xmlns="http://www.w3.org/2000/svg">
        <path d="M4 22C4 17.5817 7.58172 14 12 14C16.4183 14 20 17.5817 20 22H18C18 18.6863 15.3137 16 12 16C8.68629 16 6 18.6863 6 22H4ZM12 13C8.685 13 6 10.315 6 7C6 3.685 8.685 1 12 1C15.315 1 18 3.685 18 7C18 10.315 15.315 13 12 13ZM12 11C14.21 11 16 9.21 16 7C16 4.79 14.21 3 12 3C9.79 3 8 4.79 8 7C8 9.21 9.79 11 12 11Z" fill="currentColor"/>
    </symbol>

    <symbol id="icon-genres" width="24" height="24" viewBox="0 0 24 24" fill="none" xmlns="http://www.w3.org/2000/svg">
        <path d="M7 11.5C4.51472 11.5 2.5 9.48528 2.5 7C2.5 4.51472 4.51472 2.5 7 2.5C9.48528 2.5 11.5 4.51472 11.5 7C11.5 9.48528 9.48528 11.5 7 11.5ZM7 21.5C4.51472 21.5 2.5 19.4853 2.5 17C2.5 14.5147 4.51472 12.5 7 12.5C9.48528 12.5 11.5 14.5147 11.5 17C11.5 19.4853 9.48528 21.5 7 21.5ZM17 11.5C14.5147 11.5 12.5 9.48528 12.5 7C12.5 4.51472 14.5147 2.5 17 2.5C19.4853 2.5 21.5 4.51472 21.5 7C21.5 9.48528 19.4853 11.5 17 11.5ZM17 21.5C14.5147 21.5 12.5 19.4853 12.5 17C12.5 14.5147 14.5147 12.5 17 12.5C19.4853 12.5 21.5 14.5147 21.5 17C21.5 19.4853 19.4853 21.5 17 21.5ZM7 9.5C8.38071 9.5 9.5 8.38071 9.5 7C9.5 5.61929 8.38071 4.5 7 4.5C5.61929 4.5 4.5 5.61929 4.5 7C4.5 8.38071 5.61929 9.5 7 9.5ZM7 19.5C8.38071 19.5 9.5 18.3807 9.5 17C9.5 15.6193 8.38071 14.5 7 14.5C5.61929 14.5 4.5 15.6193 4.5 17C4.5 18.3807 5.61929 19.5 7 19.5ZM17 9.5C18.3807 9.5 19.5 8.38071 19.5 7C19.5 5.61929 18.3807 4.5 17 4.5C15.6193 4.5 14.5 5.61929 14.5 7C14.5 8.38071 15.6193 9.5 17 9.5ZM17 19.5C18.3807 19.5 19.5 18.3807 19.5 17C19.5 15.6193 18.3807 14.5 17 14.5C15.6193 14.5 14.5 15.6193 14.5 17C14.5 18.3807 15.6193 19.5 17 19.5Z" fill="currentColor"/>
    </symbol>
        
        
</svg>
        
    